<?xml version="1.0" standalone="no"?>
<!DOCTYPE svg PUBLIC "-//W3C//DTD SVG 20010904//EN"
 "http://www.w3.org/TR/2001/REC-SVG-20010904/DTD/svg10.dtd">
<svg version="1.0" xmlns="http://www.w3.org/2000/svg"
 width="1920.000000pt" height="1920.000000pt" viewBox="0 0 1920.000000 1920.000000"
 preserveAspectRatio="xMidYMid meet">

<g transform="translate(0.000000,1920.000000) scale(0.100000,-0.100000)"
fill="#000000" stroke="none">
<path d="M9395 18973 c-1365 -32 -2674 -347 -3890 -937 -2242 -1088 -3977
-3050 -4780 -5406 -273 -801 -430 -1606 -486 -2490 -14 -225 -14 -855 0 -1080
56 -881 202 -1637 476 -2455 226 -679 546 -1353 937 -1980 576 -920 1360
-1785 2221 -2449 1205 -927 2592 -1542 4074 -1805 1410 -251 2889 -175 4256
220 1401 404 2706 1143 3771 2135 1437 1337 2409 3056 2806 4963 132 636 192
1235 192 1916 0 361 -9 567 -38 875 -159 1718 -795 3363 -1833 4745 -335 447
-789 945 -1198 1315 -1604 1453 -3626 2301 -5768 2419 -207 12 -565 19 -740
14z m720 -434 c1802 -98 3537 -749 4980 -1868 489 -379 989 -863 1390 -1346
1399 -1680 2130 -3802 2064 -5987 -8 -268 -9 -288 -35 -583 -72 -811 -280
-1682 -586 -2450 -558 -1402 -1438 -2616 -2604 -3591 -531 -444 -1149 -845
-1779 -1154 -1489 -729 -3122 -1027 -4790 -874 -1628 149 -3216 763 -4530
1752 -553 417 -1071 909 -1509 1435 -1186 1427 -1893 3161 -2041 5007 -212
2627 734 5193 2600 7055 440 439 839 767 1365 1120 1088 730 2341 1212 3651
1404 603 88 1197 114 1824 80z"/>
<path d="M12280 14495 l0 -515 210 0 210 0 0 515 0 515 -210 0 -210 0 0 -515z"/>
<path d="M12237 13663 c-3 -5 -86 -236 -186 -514 l-181 -505 0 -1072 0 -1072
625 0 625 0 0 1065 0 1066 -176 492 c-97 271 -181 504 -186 520 l-10 27 -253
0 c-140 0 -256 -3 -258 -7z"/>
<path d="M6350 12489 c0 -749 0 -745 70 -894 75 -162 194 -281 358 -362 l92
-45 0 -499 0 -499 -22 0 c-13 0 -682 -1 -1488 -3 l-1465 -2 -3 -227 -2 -228
5710 0 5710 0 -2 228 -3 227 -2940 2 -2940 3 -3 502 -2 503 57 22 c170 66 330
227 405 405 57 135 58 144 58 871 l0 667 -755 0 -755 0 0 -664 c0 -725 1 -738
58 -875 75 -177 236 -338 405 -404 l57 -22 0 -502 0 -503 -795 0 c-437 0 -798
-1 -802 -2 -5 -2 -9 224 -11 502 l-2 506 49 18 c78 28 193 109 269 190 75 81
134 184 173 301 l24 70 3 693 3 692 -756 0 -755 0 0 -671z"/>
<path d="M4180 7190 l0 -2220 710 0 710 0 0 1240 0 1239 -404 3 c-392 3 -405
4 -433 24 -15 11 -38 36 -50 54 -22 32 -23 39 -23 309 0 305 5 344 62 461 43
89 168 214 259 258 133 64 108 63 1082 60 l882 -3 66 -26 c98 -38 157 -76 225
-143 69 -70 112 -141 146 -241 22 -67 23 -83 23 -355 0 -276 -1 -286 -22 -320
-12 -19 -37 -44 -55 -55 -31 -19 -54 -20 -435 -23 l-403 -3 0 -1239 0 -1240
1310 0 1310 0 0 1240 0 1239 -402 3 c-394 3 -404 3 -438 25 -19 12 -44 37 -55
55 -19 31 -20 50 -20 318 l1 285 27 80 c62 180 182 303 366 374 l66 26 884 3
c858 3 886 2 964 -18 157 -39 297 -148 370 -287 62 -119 67 -153 67 -469 0
-275 0 -282 -22 -314 -13 -18 -36 -43 -51 -54 -28 -20 -41 -21 -433 -24 l-404
-3 0 -1239 0 -1240 1310 0 1310 0 0 1240 0 1239 -403 3 -403 3 -41 27 c-71 47
-76 71 -71 389 4 246 7 281 26 339 48 147 154 272 288 342 132 70 103 68 1060
68 825 0 864 -1 938 -20 101 -26 165 -61 245 -135 78 -72 132 -153 163 -243
22 -64 23 -79 23 -369 0 -291 -1 -302 -21 -330 -12 -15 -36 -37 -55 -48 -32
-19 -55 -20 -436 -23 l-403 -3 0 -1239 0 -1240 715 0 715 0 0 2220 0 2220
-5420 0 -5420 0 0 -2220z"/>
<path d="M5215 8301 c-93 -23 -175 -99 -200 -185 -10 -34 -15 -96 -15 -198 l0
-148 1061 0 1060 0 -3 173 c-3 146 -6 178 -22 211 -27 53 -80 104 -135 130
-46 21 -53 21 -881 23 -459 1 -848 -2 -865 -6z"/>
<path d="M8738 8296 c-26 -7 -55 -19 -65 -26 -53 -41 -88 -80 -109 -125 -22
-46 -24 -62 -24 -212 l0 -163 1060 0 1060 0 0 163 c0 150 -2 166 -24 212 -28
59 -85 117 -141 142 -37 17 -95 18 -875 20 -652 1 -845 -1 -882 -11z"/>
<path d="M12280 8297 c-61 -17 -112 -49 -144 -92 -48 -62 -56 -104 -56 -276
l0 -159 1060 0 1060 0 0 148 c0 103 -5 164 -15 199 -19 63 -79 133 -142 164
l-48 24 -835 2 c-639 1 -846 -1 -880 -10z"/>
<path d="M5920 6145 l0 -1305 145 0 145 0 0 1305 0 1305 -145 0 -145 0 0
-1305z"/>
<path d="M9460 6145 l0 -1305 140 0 140 0 0 1305 0 1305 -140 0 -140 0 0
-1305z"/>
<path d="M12990 6145 l0 -1305 145 0 145 0 0 1305 0 1305 -145 0 -145 0 0
-1305z"/>
<path d="M5499 4497 c-66 -44 -79 -77 -79 -198 l0 -109 646 0 646 0 -3 108
c-5 125 -24 169 -90 202 -37 19 -61 20 -562 20 l-524 0 -34 -23z"/>
<path d="M9039 4497 c-66 -44 -79 -77 -79 -198 l0 -109 640 0 640 0 0 109 c0
121 -13 154 -79 198 l-34 23 -527 0 -527 0 -34 -23z"/>
<path d="M12578 4500 c-63 -34 -82 -78 -87 -202 l-3 -108 647 0 647 0 -4 114
c-3 127 -12 149 -78 194 l-33 22 -526 0 c-500 -1 -528 -2 -563 -20z"/>
</g>
</svg>
