<?xml version="1.0" standalone="no"?>
<!DOCTYPE svg PUBLIC "-//W3C//DTD SVG 20010904//EN"
 "http://www.w3.org/TR/2001/REC-SVG-20010904/DTD/svg10.dtd">
<svg version="1.0" xmlns="http://www.w3.org/2000/svg"
 width="512.000000pt" height="512.000000pt" viewBox="0 0 512.000000 512.000000"
 preserveAspectRatio="xMidYMid meet">

<g transform="translate(0.000000,512.000000) scale(0.100000,-0.100000)"
fill="#000000" stroke="none">
<path d="M1470 5111 c-69 -21 -132 -74 -166 -141 -10 -21 -19 -66 -22 -111
l-4 -76 -52 -12 c-102 -24 -176 -102 -196 -210 -13 -72 -13 -280 1 -320 14
-41 40 -54 114 -61 l60 -5 42 -355 c23 -195 42 -367 42 -381 l1 -27 -172 -5
c-187 -5 -251 -18 -385 -74 -256 -108 -465 -357 -533 -634 -23 -91 -37 -284
-26 -343 8 -44 59 -104 103 -122 18 -8 60 -14 93 -14 l60 0 0 -133 0 -133 -54
-23 c-68 -28 -137 -95 -173 -169 -23 -48 -28 -70 -28 -137 0 -71 4 -88 33
-147 38 -77 92 -129 170 -164 l53 -24 -3 -133 -3 -132 -75 -5 c-90 -7 -132
-31 -161 -94 -16 -35 -19 -67 -19 -211 0 -111 5 -194 15 -240 18 -87 72 -197
126 -258 l41 -47 -147 0 -147 0 -29 -29 c-17 -18 -29 -40 -29 -56 0 -16 12
-38 29 -56 l29 -29 2502 0 2502 0 29 29 c38 38 38 74 0 112 l-29 29 -211 0
c-202 0 -211 1 -211 19 0 11 70 476 156 1033 94 616 153 1026 149 1045 -7 41
-50 92 -92 109 -18 8 -62 14 -98 14 l-65 0 0 159 c0 147 -2 160 -22 191 -48
70 -63 75 -238 79 l-158 3 -4 100 c-4 95 -5 102 -31 124 -27 23 -33 24 -213
24 -177 0 -184 1 -184 20 0 47 -32 101 -76 126 -42 25 -44 28 -39 62 5 30 105
890 105 897 0 2 30 5 66 7 58 4 70 8 90 32 23 26 24 33 24 194 0 154 -2 171
-24 217 -30 66 -91 120 -157 139 -29 9 -59 16 -66 16 -10 0 -13 19 -13 73 0
87 -31 160 -88 207 -76 63 -25 60 -1146 59 -562 0 -1032 -4 -1046 -8z m2069
-176 c35 -18 41 -32 41 -101 l0 -54 -1065 0 -1065 0 0 56 c0 48 4 59 29 85
l29 29 1002 0 c859 0 1005 -2 1029 -15z m277 -358 c22 -26 24 -37 24 -128 l0
-99 -1322 2 -1323 3 -3 72 c-4 95 11 148 46 168 23 12 191 14 1290 12 l1264
-2 24 -28z m-161 -429 c-3 -18 -25 -211 -50 -428 -25 -217 -48 -414 -51 -437
l-6 -41 -108 -4 c-104 -3 -110 -4 -139 -32 -27 -26 -32 -27 -49 -15 -143 105
-222 147 -349 186 l-88 28 -675 5 -675 5 -42 355 c-23 195 -42 367 -42 383
l-1 27 1140 0 1141 0 -6 -32z m-805 -935 c97 -32 138 -51 210 -96 l64 -42
-105 -5 c-116 -6 -146 -17 -179 -73 -17 -27 -20 -51 -20 -149 l0 -118 -155 0
c-136 0 -161 -3 -195 -20 -63 -32 -80 -77 -80 -210 l0 -110 -1026 0 -1027 0 6
108 c7 119 25 196 67 289 81 178 230 322 410 397 136 56 120 55 1080 53 872
-3 886 -3 950 -24z m818 -850 l-3 -708 -111 1 c-61 0 -118 4 -127 7 -16 6 -17
64 -17 707 l0 700 130 0 130 0 -2 -707z m-428 -54 l0 -590 -22 6 c-36 11 -119
64 -175 112 l-53 45 0 509 0 509 125 0 125 0 0 -591z m860 47 l0 -543 -38 -25
c-49 -33 -135 -76 -184 -94 l-38 -13 0 609 0 610 130 0 130 0 0 -544z m420
137 l-1 -158 -40 -25 c-57 -35 -113 -105 -154 -192 -18 -40 -39 -80 -44 -88
-8 -11 -11 79 -11 303 l0 317 125 0 125 0 0 -157z m-1700 -123 l0 -190 -72 74
c-53 53 -89 79 -130 96 l-58 24 0 93 0 93 130 0 130 0 0 -190z m-600 -155 c0
-8 30 -198 36 -227 l6 -28 -151 0 c-82 0 -162 -5 -178 -11 -15 -5 -130 -112
-256 -237 l-227 -227 -228 227 c-125 125 -240 232 -255 238 -16 5 -104 10
-198 10 l-169 0 0 130 0 130 810 0 c446 0 810 -2 810 -5z m335 -23 c60 -30 98
-77 149 -180 25 -51 59 -112 75 -135 116 -169 299 -297 520 -364 79 -24 100
-26 271 -27 159 0 197 3 274 22 289 73 502 247 623 510 20 42 46 91 59 108 35
46 115 85 185 91 55 5 59 4 59 -15 0 -20 -296 -1965 -305 -2010 l-5 -22 -878
2 -877 3 -151 985 c-83 542 -153 1002 -157 1024 l-6 39 62 -5 c35 -3 80 -15
102 -26z m-1480 -572 l170 -170 -379 0 c-366 0 -381 1 -424 21 -73 36 -113
120 -93 196 11 41 60 96 101 112 14 5 122 10 240 10 l215 1 170 -170z m1235
13 c12 -87 25 -164 27 -170 4 -10 -68 -13 -338 -13 l-344 0 170 170 170 170
146 0 145 0 24 -157z m99 -646 l44 -289 -32 -31 -31 -31 -177 176 c-98 96
-192 183 -210 192 -29 14 -106 16 -718 16 l-685 0 0 130 0 130 883 -2 882 -3
44 -288z m-264 -347 c185 -185 214 -210 242 -210 19 0 43 10 63 26 17 15 32
25 34 23 3 -4 46 -287 46 -301 0 -12 -1765 -10 -1834 2 -166 27 -306 161 -341
326 -9 41 -15 124 -15 207 l0 137 798 0 797 0 210 -210z"/>
<path d="M1073 2976 c-51 -23 -61 -90 -20 -133 18 -20 31 -23 93 -23 88 0 101
4 119 41 21 39 19 64 -8 94 -19 23 -33 28 -87 31 -44 3 -76 0 -97 -10z"/>
<path d="M2113 2983 c-31 -6 -63 -50 -63 -85 0 -17 10 -39 25 -53 21 -22 33
-25 103 -25 69 0 81 3 100 23 31 33 29 87 -3 117 -20 18 -38 24 -83 26 -31 1
-67 0 -79 -3z"/>
<path d="M1605 2813 c-63 -17 -88 -98 -42 -141 20 -19 35 -22 101 -22 68 0 80
3 101 25 32 31 32 75 2 110 -18 22 -32 27 -82 30 -33 2 -69 1 -80 -2z"/>
<path d="M3433 1266 c-180 -44 -319 -194 -354 -381 -58 -312 255 -609 561
-531 181 46 304 163 352 335 45 162 -1 329 -122 451 -68 68 -138 106 -227 125
-81 17 -140 18 -210 1z m232 -185 c24 -10 62 -38 85 -61 169 -169 83 -451
-153 -500 -180 -37 -350 104 -350 290 0 176 143 309 316 295 33 -3 78 -13 102
-24z"/>
</g>
</svg>
