<?xml version="1.0" standalone="no"?>
<!DOCTYPE svg PUBLIC "-//W3C//DTD SVG 20010904//EN"
 "http://www.w3.org/TR/2001/REC-SVG-20010904/DTD/svg10.dtd">
<svg version="1.0" xmlns="http://www.w3.org/2000/svg"
 width="512.000000pt" height="512.000000pt" viewBox="0 0 512.000000 512.000000"
 preserveAspectRatio="xMidYMid meet">

<g transform="translate(0.000000,512.000000) scale(0.100000,-0.100000)"
fill="#000000" stroke="none">
<path d="M4250 5085 c-179 -13 -346 -28 -370 -35 -121 -33 -244 -129 -302
-236 -53 -98 -58 -145 -58 -552 l0 -373 25 -24 c29 -30 74 -32 106 -6 l24 19
5 394 5 393 28 57 c34 70 110 140 175 163 33 11 153 23 402 40 195 14 372 25
393 25 l37 0 0 -78 0 -78 -287 -18 c-443 -28 -457 -30 -527 -102 -65 -67 -66
-78 -66 -561 l0 -433 -669 -2 c-658 -3 -670 -3 -697 -24 -61 -45 -69 -66 -72
-192 -2 -67 1 -132 7 -153 14 -46 69 -96 115 -105 20 -3 37 -13 40 -23 2 -9 8
-98 11 -198 l7 -182 -808 -4 c-891 -3 -838 0 -1015 -68 -172 -66 -369 -234
-463 -395 -57 -97 -102 -220 -121 -331 -16 -92 -13 -120 18 -172 22 -36 84
-70 128 -71 26 0 27 0 13 -37 -23 -65 -17 -127 20 -214 6 -13 -2 -17 -38 -22
-24 -4 -77 -14 -117 -23 -65 -15 -78 -22 -124 -68 -78 -79 -95 -167 -51 -261
42 -89 112 -135 205 -135 l50 0 -17 -37 c-12 -29 -17 -68 -17 -163 0 -121 1
-128 32 -190 29 -59 30 -66 15 -74 -9 -5 -38 -30 -63 -55 -80 -83 -90 -195
-27 -313 35 -66 67 -96 142 -136 l51 -27 2135 -3 c1174 -1 2149 0 2167 3 39 7
88 46 109 88 13 25 27 289 84 1566 37 845 69 1537 69 1537 1 1 17 5 36 8 47 9
102 59 116 105 6 21 9 86 7 153 -3 126 -11 147 -72 192 -27 20 -40 21 -537 24
l-509 3 0 430 0 430 23 23 c27 27 36 28 417 51 297 18 345 26 384 62 45 41 56
81 56 200 0 119 -17 171 -68 208 -39 28 -164 28 -562 0z m710 -1645 l0 -80
-1200 0 -1200 0 0 80 0 80 1200 0 1200 0 0 -80z m-165 -282 c-3 -24 -9 -169
-15 -323 -6 -154 -13 -315 -16 -357 l-6 -78 -514 0 -515 0 -24 -25 c-33 -32
-33 -78 0 -110 l24 -25 511 0 510 0 0 -32 c0 -18 -9 -270 -22 -560 l-22 -528
-447 0 -447 0 14 37 c37 106 -14 231 -115 283 -37 18 -170 50 -212 50 -16 0
-19 4 -14 18 38 89 44 150 21 215 -13 37 -13 37 12 37 43 0 110 39 133 77 27
43 28 116 5 217 -94 399 -436 701 -842 741 l-72 7 -7 181 c-3 100 -9 190 -11
200 -5 16 49 17 1035 17 l1041 0 -5 -42z m-1870 -542 c153 -45 324 -156 410
-265 94 -119 158 -261 172 -379 l6 -52 -1595 0 -1595 0 9 56 c28 181 136 366
281 484 99 82 265 155 392 173 17 2 442 4 945 3 844 -2 920 -3 975 -20z m397
-894 c28 -28 33 -39 33 -82 0 -43 -5 -54 -33 -82 l-32 -33 -1370 0 -1370 0
-32 33 c-28 28 -33 39 -33 81 0 52 26 93 70 112 11 4 631 7 1377 6 l1358 -2
32 -33z m178 -390 c63 -13 126 -28 139 -35 35 -16 48 -57 32 -95 -20 -48 -50
-52 -181 -26 -85 17 -151 23 -255 23 l-140 1 -239 -170 c-243 -172 -275 -189
-338 -176 -18 3 -154 83 -304 176 l-272 170 -738 -1 c-730 0 -740 0 -854 -23
-120 -24 -151 -22 -176 12 -21 27 -17 70 9 95 21 21 96 38 317 71 14 2 669 3
1455 2 l1430 -1 115 -23z m-2702 -323 c-6 -64 -70 -64 -76 0 -3 30 -2 31 38
31 40 0 41 -1 38 -31z m240 -80 c-3 -94 -6 -114 -20 -123 -13 -8 -23 -8 -35 0
-15 9 -18 29 -21 123 l-3 111 41 0 41 0 -3 -111z m1108 -46 c263 -166 318
-192 400 -193 96 0 138 21 375 190 l224 160 60 0 c33 0 76 -5 96 -10 38 -11
109 -72 109 -94 0 -23 -71 -51 -130 -51 -38 0 -68 7 -98 23 -55 28 -87 28
-117 -3 -43 -42 -31 -98 30 -133 87 -52 201 -65 294 -33 l53 19 -6 -31 c-11
-54 -41 -101 -85 -132 l-43 -30 -1387 0 -1387 0 -41 27 c-22 15 -51 44 -64 65
-21 33 -24 50 -24 138 0 118 16 161 78 206 59 43 73 39 80 -22 12 -101 81
-167 186 -176 57 -5 60 -7 67 -35 13 -63 107 -128 183 -128 65 0 147 48 178
104 10 18 11 18 59 0 34 -13 74 -19 131 -18 73 0 89 4 156 37 41 20 78 37 81
37 4 0 24 -11 45 -24 60 -38 145 -59 216 -54 70 6 178 50 201 82 34 49 0 126
-57 126 -16 0 -48 -10 -71 -22 -66 -35 -137 -31 -218 11 -89 47 -150 48 -236
3 -34 -18 -78 -36 -98 -39 -89 -14 -186 50 -186 122 l0 35 349 0 348 0 249
-157z m2550 0 c-3 -43 -11 -204 -16 -358 -6 -154 -13 -299 -16 -322 l-5 -43
-511 0 c-482 0 -510 1 -503 18 55 131 44 223 -35 302 -25 25 -53 50 -62 55
-16 9 -15 15 15 75 31 61 32 69 32 180 0 63 -3 127 -8 143 l-7 27 561 0 561 0
-6 -77z m-1199 -509 c45 -45 21 -134 -51 -188 -27 -21 -28 -21 -1526 -21
-1498 0 -1499 0 -1526 21 -44 32 -66 68 -71 117 -5 39 -2 49 20 71 l26 26
1551 0 1551 0 26 -26z"/>
<path d="M985 2535 c-16 -15 -25 -36 -25 -55 0 -19 9 -40 25 -55 21 -22 33
-25 95 -25 62 0 74 3 95 25 33 32 33 78 0 110 -21 22 -33 25 -95 25 -62 0 -74
-3 -95 -25z"/>
<path d="M1545 2535 c-16 -15 -25 -36 -25 -55 0 -19 9 -40 25 -55 21 -22 33
-25 95 -25 62 0 74 3 95 25 16 15 25 36 25 55 0 19 -9 40 -25 55 -21 22 -33
25 -95 25 -62 0 -74 -3 -95 -25z"/>
<path d="M2025 2535 c-16 -15 -25 -36 -25 -55 0 -19 9 -40 25 -55 21 -22 33
-25 95 -25 62 0 74 3 95 25 16 15 25 36 25 55 0 19 -9 40 -25 55 -21 22 -33
25 -95 25 -62 0 -74 -3 -95 -25z"/>
<path d="M2505 2455 c-16 -15 -25 -36 -25 -55 0 -19 9 -40 25 -55 21 -22 33
-25 95 -25 62 0 74 3 95 25 16 15 25 36 25 55 0 19 -9 40 -25 55 -21 22 -33
25 -95 25 -62 0 -74 -3 -95 -25z"/>
<path d="M1225 2295 c-16 -15 -25 -36 -25 -55 0 -19 9 -40 25 -55 21 -22 33
-25 95 -25 62 0 74 3 95 25 16 15 25 36 25 55 0 19 -9 40 -25 55 -21 22 -33
25 -95 25 -62 0 -74 -3 -95 -25z"/>
<path d="M1865 2295 c-16 -15 -25 -36 -25 -55 0 -19 9 -40 25 -55 21 -22 33
-25 95 -25 62 0 74 3 95 25 16 15 25 36 25 55 0 19 -9 40 -25 55 -21 22 -33
25 -95 25 -62 0 -74 -3 -95 -25z"/>
</g>
</svg>
